<svg xmlns="http://www.w3.org/2000/svg" viewBox="0 0 980 980" fill="none" shape-rendering="auto"><metadata xmlns:rdf="http://www.w3.org/1999/02/22-rdf-syntax-ns#" xmlns:xsi="http://www.w3.org/2001/XMLSchema-instance" xmlns:dc="http://purl.org/dc/elements/1.1/" xmlns:dcterms="http://purl.org/dc/terms/"><rdf:RDF><rdf:Description><dc:title>Lorelei</dc:title><dc:creator>Lisa Wischofsky</dc:creator><dc:source xsi:type="dcterms:URI">https://www.figma.com/community/file/1198749693280469639</dc:source><dcterms:license xsi:type="dcterms:URI">https://creativecommons.org/publicdomain/zero/1.0/</dcterms:license><dc:rights>Remix of „Lorelei” (https://www.figma.com/community/file/1198749693280469639) by „Lisa Wischofsky”, licensed under „CC0 1.0” (https://creativecommons.org/publicdomain/zero/1.0/)</dc:rights></rdf:Description></rdf:RDF></metadata><mask id="viewboxMask"><rect width="980" height="980" rx="0" ry="0" x="0" y="0" fill="#fff" /></mask><g mask="url(#viewboxMask)"><rect fill="url(#backgroundLinear)" width="980" height="980" x="0" y="0" /><defs><linearGradient id="backgroundLinear" gradientTransform="rotate(135 0.5 0.5)"><stop stop-color="#fff0d4"/><stop offset="1" stop-color="#ffd9e6"/></linearGradient></defs><g transform="translate(10 -60)"><path fill-rule="evenodd" clip-rule="evenodd" d="M348 80h-9c-7-1-13-1-20 1-23 5-43 20-56 40-10 13-16 29-18 46l-1 1c-11 5-22 13-29 22a70 70 0 0 0-17 41c-1 14 3 28 11 40 6 10 15 19 26 25l-1 2c-10 7-18 14-26 23-19 21-33 47-43 74a275 275 0 0 0-12 118c4 19 10 38 21 55a182 182 0 0 0 78 67 435 435 0 0 0 141 234v1l10 6c2 0 3 1 4-1v-3l-1-1-9-18-5-8c-10-20-20-39-28-59-11-25-18-51-23-77a998 998 0 0 1-12-112c-2-16-1-32-1-48a2087 2087 0 0 0 3-10l1-1c8-6 14-13 21-20l1-1 10-11-8 35-1 3a394 394 0 0 1-15 49c0 3 2 5 4 6 3 3 8 3 12 3 9 0 18-2 27-4 12-3 24-8 34-16 15-9 27-22 38-35l-1 3a266 266 0 0 1-19 45c-2 4-5 9-6 14 0 2 2 3 3 3 3 1 7 0 11-2h1c16-6 29-16 42-27a252 252 0 0 0 53-68c14-24 26-50 32-78l1-3 1-3a231 231 0 0 1-11 96 215 215 0 0 1-49 87l-4 4-1 3c3 1 6-1 8-2l1-1c18-12 33-30 44-49a276 276 0 0 0 38-127c1-20 0-40-2-60s-6-41-16-59l2 1a340 340 0 0 1 58 58l3 3c-4 28-6 56-4 84l1 12c2 21 4 43 8 64 2 12 6 24 11 36l4 9 9 23 18 48a351 351 0 0 1 14 128 145 145 0 0 1-8 50l2 1c8-5 15-12 21-19a263 263 0 0 0 31-161c-5-45-15-88-26-131v-5c19-30 30-66 27-102-1-11-4-21-7-31 7 12 12 24 17 36l6 29a158 158 0 0 1-4 57l-2 11h4c5-3 8-10 10-15 6-14 8-30 9-45 2-21-5-42-14-61-9-20-20-40-34-57l-1-1c13 8 26 17 36 29a192 192 0 0 1 23 29c3 0 1-5 0-6a128 128 0 0 0-42-57c-13-10-28-18-43-24l-1-1-4-2-10-17c-19-24-44-43-71-58a298 298 0 0 0-124-36l18-8c14-8 26-19 35-32 5-7 9-16 7-25 0-2-2-5-4-3l-4 5-2 4c-9 13-22 22-35 31l1-3 1-1c5-11 8-23 5-35-3-10-7-20-16-26-8-7-19-8-29-7l-3 1h-4a89 89 0 0 0-57-17c-22 1-43 12-58 28l-3 1-1-1c-12-3-25-2-36 2a85 85 0 0 0-35 27l6-12 1-2a105 105 0 0 1 64-43l8-1h4c1-1-1-2-2-2l-1-1-12-2Zm151 40c-5-4-11-5-17-5l1 3 1 2c5 9 6 21 5 31a91 91 0 0 1-11 35l-2 3 16-3v-1l5-4 1-2c9-11 15-25 12-39-1-7-5-15-11-20Zm-253 65c-11 9-20 21-26 34-4 10-6 21-4 32-3-11-4-22 0-32 6-15 17-25 30-34Zm-45 171 2-5-1 2a239 239 0 0 0-30 174 136 136 0 0 0 36 59c6 7 13 13 20 18l-5-5-1-3c-20-26-32-58-38-91a273 273 0 0 1 17-149Z" fill="#a44a22"/><path d="M528 244c41 6 80 22 113 47 28 21 50 49 65 81 13 28 20 60 19 91-1 15-3 30-8 44h-2l1-21c1-30-2-59-13-87-10-30-28-57-50-79-42-40-98-62-156-63a243 243 0 0 0-196 94 207 207 0 0 0-40 139l2 25c8 0 19 0 25 7l-3 3-17 1c-12 1-24 5-33 13a64 64 0 0 0-17 39c-5 32 12 65 39 83 16 10 36 15 55 9 4-2 9-5 14-3 3 1 4 4 5 7a251 251 0 0 0 90 100c8 7 18 13 28 18 18 8 38 14 57 19l32 8c5 1 9 1 13 3l-4 1c-25 2-48-3-72-10-12-3-23-7-34-12a306 306 0 0 1-84-63l2 28c1 17 0 35-6 52-4 12-11 24-19 34-10 10-22 19-34 26-10 7-21 14-32 18l-16 5 9-9 31-20 22-17a95 95 0 0 0 32-56c2-14 2-28 2-43v-27c-10-14-22-29-27-46-17 8-38 7-55-1-17-7-32-19-43-33-12-17-19-36-21-56s2-40 15-56c9-10 22-18 35-21-4-14-6-29-6-44a234 234 0 0 1 83-173 249 249 0 0 1 199-55Z" fill="#000"/><path d="M653 320c22 22 40 49 50 79 11 28 14 57 13 87l-1 21-5 15-2 13 2 56c0 21 1 42-1 63l-3 47c-2 16-7 31-14 45-11 18-26 33-44 44-13 8-27 12-41 16l-38 11-17 3c0 1 1 2 3 2 8 5 17 5 26 4-3 7-4 14-2 22 3 7 11 11 17 14 12 6 24 7 36 9 7 6 14 14 16 24 2 8 2 16-2 23-5 10-14 18-24 23-13 8-27 14-42 18a468 468 0 0 1-222-1c-17-4-33-9-48-17-12-6-23-13-32-22-5-7-9-14-10-23 11-4 22-11 32-18 12-7 24-16 34-26 8-10 15-22 19-34 6-17 7-35 6-52l-2-28 22 23c19 15 40 30 62 40 11 5 22 9 34 12 24 7 47 12 72 10l4-1c-4-2-8-2-13-3l-32-8c-19-5-39-11-57-19l-29-17c-11-9-23-17-33-27a251 251 0 0 1-56-74c-1-3-2-6-5-7-5-2-10 1-14 3-19 6-39 1-55-9a88 88 0 0 1-39-83c1-14 7-28 17-39 9-8 21-12 33-13l17-1 3-3c-6-7-17-7-25-7l-2-25a207 207 0 0 1 40-139 243 243 0 0 1 196-94c58 1 114 23 156 63Z" fill="#f0c29a"/><path d="M710 522c3 0 3 4 4 6 3 11 4 23 5 34l2 21c1 22 2 43 1 65-1 21-1 44-5 65a136 136 0 0 1-80 99c-15 7-31 11-48 13v15c1 3 3 4 5 6 12 6 23 8 36 11 12 3 24 5 36 11-3 3-7 4-11 4-7 1-15-1-23-1-12-2-24-3-36-9-6-3-14-7-17-14-2-8-1-15 2-22-9 1-18 1-26-4-2 0-3-1-3-2l17-3 38-11c14-4 28-8 41-16 18-11 33-26 44-44 7-14 12-29 14-45l3-47c2-21 1-42 1-63l-2-56 2-13ZM252 549c8 0 17 1 23 7 5 4 10 9 12 15 1 3 0 6-2 8l-13 8c-7 6-7 19 0 25 6 5 14 8 21 11 2 0 5 1 6 3-1 2-3 3-5 3-10 0-20-3-28-9-5-3-8-8-9-13-2-8-2-17 4-24 4-6 11-9 18-12-4-5-7-11-14-13-7-3-15-3-22-5l9-4Z" fill="#000"/><path d="M681 473c6 2 11 6 14 12 2 2 3 6 2 9-2 4-7 6-11 5-5-1-6-6-11-9-6-4-12-4-19-2 3 2 6 4 7 8 4 7 4 17 2 25-2 6-5 12-11 15-6 2-13 0-16-5-5-6-6-15-5-23l-11 20c-1 3-1 6-4 8-2-7 0-13 2-19 6-17 19-31 34-40 8-4 18-6 27-4ZM445 484c31-4 63 14 76 42 2 2 3 6 1 9-3-1-5-4-7-7-5-8-11-14-19-20 1 5 2 10 1 16-1 8-5 17-12 21-6 4-13 3-18 0-7-5-10-12-11-20-1-9 1-20 7-28-19 2-37 8-52 20l-7 4c-4 1-7-1-8-4-2-3-1-8 2-10 13-13 29-21 47-23Z" fill="#000000"/><path d="M505 385c8 1 16 2 23 6 5 4 8 9 10 14l-2 2c-2 1-4-1-6-2-9-6-21-7-32-7-9 0-18 2-27 6-8 3-17 5-24 9l-19 7c-13 5-27 5-40 10-7 3-12 9-18 13l-9 9c1-8 5-16 10-22l13-13c7-6 17-9 26-11 10-2 19-6 29-9l19-5c8-2 15-5 23-6l24-1ZM671 399c7 1 14 4 22 4v3c-7 6-15 9-24 10-12 2-26-1-37 3l-5 3c-9 10-14 22-20 34-2-7 3-15 5-22s7-12 9-19c4-9 14-16 24-16h26Z" fill="#a44a22"/><path d="M296 658c3 2 5 6 5 9 2 8 1 17 0 25-2 6-3 14-9 17-6 2-11-1-13-6-3-8-1-18 0-26 1-5 2-12 5-16s8-5 12-3Z" fill="#000000"/><path d="M676 575c3-2 7 0 7 4 0 3-3 4-6 4-3-1-4-6-1-8ZM366 583c2-1 5 0 7 1 2 3 2 7 0 10-3 2-6 2-9 0-3-3-2-9 2-11ZM624 584c1-1 4-1 5 1 0 2 0 4-2 4-3 1-5-3-3-5ZM649 584c5-2 10 3 8 7s-7 6-10 3-2-8 2-10ZM475 586c2-1 6 1 5 3 1 2-1 4-4 4-3-1-3-5-1-7ZM691 587c3-2 7 0 7 3 1 3-3 5-6 4-2-1-2-5-1-7ZM412 587c5 0 8 6 6 10-1 2-4 3-6 4-2-1-5-2-6-4-2-4 2-10 6-10ZM339 595c4-1 7 1 7 5-1 4-5 5-8 3-2-2-2-6 1-8ZM670 600c4-2 8 1 8 5s-5 7-8 4c-3-2-3-7 0-9ZM450 604c3 0 3 2 5 4l-2 3c-3 3-7 1-8-2 0-3 2-6 5-5ZM384 617c4 0 7 2 8 6 0 4-3 8-7 8-3 0-6-2-7-5-1-4 2-9 6-9Z" fill="#000000"/><path d="M607 606c0 3-2 6-4 9-4 6-11 10-18 12-5 1-9-2-13 0-4 0-8 1-12-1-2-1-2-4 0-6 3-4 8-7 12-7 4-1 7-1 10 2l1 7c5-2 7-5 11-8l13-8Z" fill="#000000"/><path d="m636 651-7 8-17 16c-9 10-19 18-32 22-18 6-38 4-57 0-10-3-21-7-31-13l-6-5c0-3 2-4 4-4l17 5 33-4c13-2 27-3 39 0l5-1 19-8c4-2 8-3 13-3 6-4 13-10 20-13Z" fill="#000000"/><path d="M559 212c40 10 78 29 108 56 14 11 26 25 36 40l5 8c10 9 19 19 27 29a236 236 0 0 1 49 97c1 8 2 15 1 23-1 15-3 30-9 44-2 5-5 12-10 15h-4l2-9a154 154 0 0 0 1-76c-4-17-11-33-20-48l4 12c5 21 5 45-1 67-4 20-13 38-24 56-5 5-9 12-15 16-3 2-6 1-9 2-2-2-1-4-1-6l-1-20c-2-35-14-69-31-100a318 318 0 0 0-77-88l-9-7a244 244 0 0 1 17 68c1 17 2 34 1 51-2 30-6 59-17 87-6 15-13 28-21 42-11 18-26 35-43 47-3 1-7 4-10 3l1-3 17-19c22-26 34-60 42-93 6-25 7-50 4-75l-1 6a376 376 0 0 1-44 99 227 227 0 0 1-77 71l-14 5c-2 1-6 1-7-2 1-6 5-12 7-18a267 267 0 0 0 19-45c-13 16-28 31-46 41-16 9-35 14-53 14-5 0-11-1-14-5-3-2-1-6 0-10l10-32c5-16 9-32 12-49l-16 18-19 17-1 23a756 756 0 0 0 32 212c11 30 26 57 41 85l6 12c1 2-1 4-3 3a335 335 0 0 1-61-55 433 433 0 0 1-97-326l-2-4a181 181 0 0 1-13-130c10-32 27-60 50-83 27-27 61-47 97-60 58-20 122-22 181-6Z" fill="#a44a22"/></g><g transform="translate(10 -60)"></g></g></svg>